<?xml version="1.0" standalone="no"?>
<!DOCTYPE svg PUBLIC "-//W3C//DTD SVG 20010904//EN"
 "http://www.w3.org/TR/2001/REC-SVG-20010904/DTD/svg10.dtd">
<svg version="1.0" xmlns="http://www.w3.org/2000/svg"
 width="512.000000pt" height="512.000000pt" viewBox="0 0 512.000000 512.000000"
 preserveAspectRatio="xMidYMid meet">
<metadata>
Created by potrace 1.11, written by Peter Selinger 2001-2013
</metadata>
<g transform="translate(0.000000,512.000000) scale(0.100000,-0.100000)"
fill="#000000" stroke="none">
<path d="M3731 3174 c-179 -48 -312 -189 -366 -389 -24 -86 -28 -263 -9 -355
66 -320 335 -506 624 -432 180 46 318 198 369 408 14 59 18 108 16 194 -1 63
-5 124 -8 135 -23 89 -33 117 -60 174 -103 211 -345 325 -566 265z m268 -149
c128 -70 191 -201 197 -415 10 -312 -126 -503 -351 -496 -209 5 -334 184 -333
476 1 117 18 206 58 286 63 129 155 184 301 179 61 -1 85 -7 128 -30z"/>
<path d="M993 3158 c-40 -19 -38 -98 3 -117 14 -6 38 -11 54 -11 l30 0 0 -440
0 -440 -22 -1 c-67 -2 -92 -23 -91 -75 2 -58 16 -62 210 -64 161 -1 174 1 193
20 36 36 19 107 -28 112 -9 0 -21 2 -27 3 -5 2 -29 3 -52 4 l-43 1 0 200 0
200 235 0 235 0 0 -200 0 -200 -37 -1 c-39 -1 -59 -3 -100 -14 -45 -11 -43
-98 3 -115 36 -14 327 -13 358 1 28 13 38 50 24 90 -8 25 -17 29 -59 35 l-49
7 0 438 0 439 34 0 c44 0 87 34 82 63 -3 12 -5 27 -5 34 -1 6 -8 19 -17 27
-13 13 -45 16 -190 16 -161 0 -176 -2 -194 -20 -20 -20 -26 -65 -12 -86 14
-22 52 -34 106 -34 l56 0 0 -175 0 -175 -235 0 -235 0 0 175 0 175 56 0 c83 0
114 20 114 76 0 56 -26 64 -212 63 -91 0 -173 -5 -185 -11z"/>
<path d="M2160 3150 c-23 -23 -26 -68 -7 -94 13 -18 32 -24 80 -25 18 -1 31
-8 38 -23 5 -13 15 -32 22 -43 7 -11 74 -126 150 -256 l137 -236 0 -161 0
-160 -116 -4 c-100 -3 -118 -6 -130 -23 -18 -24 -18 -66 0 -91 14 -18 31 -19
302 -22 197 -2 296 1 315 8 48 20 44 101 -6 120 -14 5 -29 9 -33 9 -4 -1 -46
-1 -94 0 l-88 1 0 155 c0 142 2 158 23 194 12 22 85 150 162 284 l140 245 44
5 c27 3 50 12 58 23 19 27 16 71 -8 95 -19 19 -30 20 -185 17 -151 -3 -167 -5
-180 -23 -8 -10 -12 -30 -10 -45 2 -14 5 -30 5 -36 1 -16 47 -34 86 -34 19 0
35 -2 35 -6 0 -3 -52 -97 -117 -209 -100 -177 -118 -203 -128 -187 -7 9 -31
53 -55 97 -24 44 -51 94 -61 112 -10 18 -35 63 -55 100 -20 37 -41 74 -47 81
-7 9 2 12 41 12 67 0 96 23 95 75 -1 20 -6 42 -13 49 -7 7 -73 12 -196 13
-172 2 -186 1 -204 -17z"/>
</g>
</svg>
